<mxfile host="Electron" modified="2024-02-26T12:30:41.818Z" agent="Mozilla/5.0 (Windows NT 10.0; Win64; x64) AppleWebKit/537.36 (KHTML, like Gecko) draw.io/21.7.5 Chrome/114.0.5735.289 Electron/25.8.1 Safari/537.36" etag="ITSIib7RMnb2omymFrse" version="21.7.5" type="device">
  <diagram name="PÃ¡gina-1" id="2hxCW3SdmWYK4ub4ML_k">
    <mxGraphModel dx="6723" dy="3761" grid="1" gridSize="10" guides="1" tooltips="1" connect="1" arrows="1" fold="1" page="1" pageScale="1" pageWidth="827" pageHeight="1169" math="0" shadow="0">
      <root>
        <mxCell id="0" />
        <mxCell id="1" parent="0" />
        <mxCell id="wv7NlOpOTZngOKm9A4KX-1" value="&lt;b&gt;Usuario&lt;/b&gt;" style="swimlane;fontStyle=0;childLayout=stackLayout;horizontal=1;startSize=30;horizontalStack=0;resizeParent=1;resizeParentMax=0;resizeLast=0;collapsible=1;marginBottom=0;whiteSpace=wrap;html=1;rounded=1;fillColor=#dae8fc;strokeColor=#6c8ebf;strokeWidth=2;" parent="1" vertex="1">
          <mxGeometry x="160" y="40" width="180" height="120" as="geometry" />
        </mxCell>
        <mxCell id="wv7NlOpOTZngOKm9A4KX-2" value="- id :Long" style="text;strokeColor=none;fillColor=none;align=left;verticalAlign=middle;spacingLeft=4;spacingRight=4;overflow=hidden;points=[[0,0.5],[1,0.5]];portConstraint=eastwest;rotatable=0;whiteSpace=wrap;html=1;rounded=1;" parent="wv7NlOpOTZngOKm9A4KX-1" vertex="1">
          <mxGeometry y="30" width="180" height="30" as="geometry" />
        </mxCell>
        <mxCell id="wv7NlOpOTZngOKm9A4KX-3" value="- username: String" style="text;strokeColor=none;fillColor=none;align=left;verticalAlign=middle;spacingLeft=4;spacingRight=4;overflow=hidden;points=[[0,0.5],[1,0.5]];portConstraint=eastwest;rotatable=0;whiteSpace=wrap;html=1;rounded=1;" parent="wv7NlOpOTZngOKm9A4KX-1" vertex="1">
          <mxGeometry y="60" width="180" height="30" as="geometry" />
        </mxCell>
        <mxCell id="wv7NlOpOTZngOKm9A4KX-4" value="- seguidosId :List&amp;lt;long&amp;gt;" style="text;strokeColor=none;fillColor=none;align=left;verticalAlign=middle;spacingLeft=4;spacingRight=4;overflow=hidden;points=[[0,0.5],[1,0.5]];portConstraint=eastwest;rotatable=0;whiteSpace=wrap;html=1;rounded=1;" parent="wv7NlOpOTZngOKm9A4KX-1" vertex="1">
          <mxGeometry y="90" width="180" height="30" as="geometry" />
        </mxCell>
        <mxCell id="wv7NlOpOTZngOKm9A4KX-5" value="Tweet" style="swimlane;fontStyle=0;childLayout=stackLayout;horizontal=1;startSize=30;horizontalStack=0;resizeParent=1;resizeParentMax=0;resizeLast=0;collapsible=1;marginBottom=0;whiteSpace=wrap;html=1;rounded=1;fillColor=#dae8fc;strokeColor=#6c8ebf;strokeWidth=2;" parent="1" vertex="1">
          <mxGeometry x="460" y="-510" width="180" height="150" as="geometry" />
        </mxCell>
        <mxCell id="wv7NlOpOTZngOKm9A4KX-6" value="id :Long" style="text;strokeColor=none;fillColor=none;align=left;verticalAlign=middle;spacingLeft=4;spacingRight=4;overflow=hidden;points=[[0,0.5],[1,0.5]];portConstraint=eastwest;rotatable=0;whiteSpace=wrap;html=1;" parent="wv7NlOpOTZngOKm9A4KX-5" vertex="1">
          <mxGeometry y="30" width="180" height="30" as="geometry" />
        </mxCell>
        <mxCell id="wv7NlOpOTZngOKm9A4KX-7" value="mensaje :String" style="text;strokeColor=none;fillColor=none;align=left;verticalAlign=middle;spacingLeft=4;spacingRight=4;overflow=hidden;points=[[0,0.5],[1,0.5]];portConstraint=eastwest;rotatable=0;whiteSpace=wrap;html=1;" parent="wv7NlOpOTZngOKm9A4KX-5" vertex="1">
          <mxGeometry y="60" width="180" height="30" as="geometry" />
        </mxCell>
        <mxCell id="wv7NlOpOTZngOKm9A4KX-8" value="fechaCreacion :LocalDateTime" style="text;strokeColor=none;fillColor=none;align=left;verticalAlign=middle;spacingLeft=4;spacingRight=4;overflow=hidden;points=[[0,0.5],[1,0.5]];portConstraint=eastwest;rotatable=0;whiteSpace=wrap;html=1;" parent="wv7NlOpOTZngOKm9A4KX-5" vertex="1">
          <mxGeometry y="90" width="180" height="30" as="geometry" />
        </mxCell>
        <mxCell id="oM5YWkkTPaAaX_TVX0Da-1" value="usuarioCreadorId: Long" style="text;strokeColor=none;fillColor=none;align=left;verticalAlign=middle;spacingLeft=4;spacingRight=4;overflow=hidden;points=[[0,0.5],[1,0.5]];portConstraint=eastwest;rotatable=0;whiteSpace=wrap;html=1;" parent="wv7NlOpOTZngOKm9A4KX-5" vertex="1">
          <mxGeometry y="120" width="180" height="30" as="geometry" />
        </mxCell>
        <mxCell id="wv7NlOpOTZngOKm9A4KX-27" value="&lt;i style=&quot;border-color: var(--border-color);&quot;&gt;&amp;lt;&amp;lt;Interface&amp;gt;&amp;gt;&lt;/i&gt;&lt;br style=&quot;border-color: var(--border-color);&quot;&gt;TweetService" style="swimlane;fontStyle=0;childLayout=stackLayout;horizontal=1;startSize=26;fillColor=#dae8fc;horizontalStack=0;resizeParent=1;resizeParentMax=0;resizeLast=0;collapsible=1;marginBottom=0;whiteSpace=wrap;html=1;rounded=1;strokeColor=#6c8ebf;" parent="1" vertex="1">
          <mxGeometry x="820" y="-390" width="470" height="78" as="geometry" />
        </mxCell>
        <mxCell id="wv7NlOpOTZngOKm9A4KX-28" value="#&lt;span style=&quot;background-color: initial;&quot;&gt;crear(usuario :String, tweet :String) :TweetDTO&lt;/span&gt;" style="text;strokeColor=none;fillColor=none;align=left;verticalAlign=top;spacingLeft=4;spacingRight=4;overflow=hidden;rotatable=0;points=[[0,0.5],[1,0.5]];portConstraint=eastwest;whiteSpace=wrap;html=1;" parent="wv7NlOpOTZngOKm9A4KX-27" vertex="1">
          <mxGeometry y="26" width="470" height="26" as="geometry" />
        </mxCell>
        <mxCell id="oM5YWkkTPaAaX_TVX0Da-43" value="#obtenerTweetsPorUsuariosId(usuarioId :Long, pageable :Pageable) :Page&amp;lt;Tweet&amp;gt;" style="text;strokeColor=none;fillColor=none;align=left;verticalAlign=top;spacingLeft=4;spacingRight=4;overflow=hidden;rotatable=0;points=[[0,0.5],[1,0.5]];portConstraint=eastwest;whiteSpace=wrap;html=1;" parent="wv7NlOpOTZngOKm9A4KX-27" vertex="1">
          <mxGeometry y="52" width="470" height="26" as="geometry" />
        </mxCell>
        <mxCell id="wv7NlOpOTZngOKm9A4KX-31" value="&lt;i style=&quot;border-color: var(--border-color);&quot;&gt;&amp;lt;&amp;lt;Interface&amp;gt;&amp;gt;&lt;/i&gt;&lt;br style=&quot;border-color: var(--border-color);&quot;&gt;&lt;b style=&quot;border-color: var(--border-color);&quot;&gt;UsuarioService&lt;/b&gt;" style="swimlane;fontStyle=0;childLayout=stackLayout;horizontal=1;startSize=26;fillColor=#dae8fc;horizontalStack=0;resizeParent=1;resizeParentMax=0;resizeLast=0;collapsible=1;marginBottom=0;whiteSpace=wrap;html=1;rounded=1;strokeColor=#6c8ebf;" parent="1" vertex="1">
          <mxGeometry x="559.75" y="22" width="414.5" height="104" as="geometry" />
        </mxCell>
        <mxCell id="wv7NlOpOTZngOKm9A4KX-32" value="#validarExisteUsuario(username:String):Usuario" style="text;strokeColor=none;fillColor=none;align=left;verticalAlign=top;spacingLeft=4;spacingRight=4;overflow=hidden;rotatable=0;points=[[0,0.5],[1,0.5]];portConstraint=eastwest;whiteSpace=wrap;html=1;" parent="wv7NlOpOTZngOKm9A4KX-31" vertex="1">
          <mxGeometry y="26" width="414.5" height="26" as="geometry" />
        </mxCell>
        <mxCell id="oM5YWkkTPaAaX_TVX0Da-14" value="#seguir&lt;span style=&quot;background-color: initial;&quot;&gt;(idUsuarioSeguidor:Long, idUsuarioSeguido :Long):Usuario&lt;/span&gt;" style="text;strokeColor=none;fillColor=none;align=left;verticalAlign=top;spacingLeft=4;spacingRight=4;overflow=hidden;rotatable=0;points=[[0,0.5],[1,0.5]];portConstraint=eastwest;whiteSpace=wrap;html=1;" parent="wv7NlOpOTZngOKm9A4KX-31" vertex="1">
          <mxGeometry y="52" width="414.5" height="26" as="geometry" />
        </mxCell>
        <mxCell id="-tmgflOPchkeGRTaXNn_-86" value="#buscarUsuarioConSeguidosPorId(id :Long&lt;span style=&quot;background-color: initial;&quot;&gt;):Usuario&lt;/span&gt;" style="text;strokeColor=none;fillColor=none;align=left;verticalAlign=top;spacingLeft=4;spacingRight=4;overflow=hidden;rotatable=0;points=[[0,0.5],[1,0.5]];portConstraint=eastwest;whiteSpace=wrap;html=1;" parent="wv7NlOpOTZngOKm9A4KX-31" vertex="1">
          <mxGeometry y="78" width="414.5" height="26" as="geometry" />
        </mxCell>
        <mxCell id="wv7NlOpOTZngOKm9A4KX-35" value="&lt;i style=&quot;border-color: var(--border-color);&quot;&gt;&amp;lt;&amp;lt;Interface&amp;gt;&amp;gt;&lt;/i&gt;&lt;br style=&quot;border-color: var(--border-color);&quot;&gt;UsuarioRepository" style="swimlane;fontStyle=0;childLayout=stackLayout;horizontal=1;startSize=26;fillColor=#ffe6cc;horizontalStack=0;resizeParent=1;resizeParentMax=0;resizeLast=0;collapsible=1;marginBottom=0;whiteSpace=wrap;html=1;strokeColor=#d79b00;rounded=1;" parent="1" vertex="1">
          <mxGeometry x="1033" y="30" width="310" height="104" as="geometry" />
        </mxCell>
        <mxCell id="wv7NlOpOTZngOKm9A4KX-36" value="- save(usuarioSeguido :Usuario) : usuario" style="text;strokeColor=none;fillColor=none;align=left;verticalAlign=top;spacingLeft=4;spacingRight=4;overflow=hidden;rotatable=0;points=[[0,0.5],[1,0.5]];portConstraint=eastwest;whiteSpace=wrap;html=1;" parent="wv7NlOpOTZngOKm9A4KX-35" vertex="1">
          <mxGeometry y="26" width="310" height="26" as="geometry" />
        </mxCell>
        <mxCell id="-tmgflOPchkeGRTaXNn_-87" value="- findById(id :Long) : usuario" style="text;strokeColor=none;fillColor=none;align=left;verticalAlign=top;spacingLeft=4;spacingRight=4;overflow=hidden;rotatable=0;points=[[0,0.5],[1,0.5]];portConstraint=eastwest;whiteSpace=wrap;html=1;" parent="wv7NlOpOTZngOKm9A4KX-35" vertex="1">
          <mxGeometry y="52" width="310" height="26" as="geometry" />
        </mxCell>
        <mxCell id="-tmgflOPchkeGRTaXNn_-88" value="- findByUsername(username :String) : usuario" style="text;strokeColor=none;fillColor=none;align=left;verticalAlign=top;spacingLeft=4;spacingRight=4;overflow=hidden;rotatable=0;points=[[0,0.5],[1,0.5]];portConstraint=eastwest;whiteSpace=wrap;html=1;" parent="wv7NlOpOTZngOKm9A4KX-35" vertex="1">
          <mxGeometry y="78" width="310" height="26" as="geometry" />
        </mxCell>
        <mxCell id="wv7NlOpOTZngOKm9A4KX-39" value="&lt;i style=&quot;border-color: var(--border-color);&quot;&gt;&amp;lt;&amp;lt;Interface&amp;gt;&amp;gt;&lt;/i&gt;&lt;br style=&quot;border-color: var(--border-color);&quot;&gt;TweetRepository" style="swimlane;fontStyle=0;childLayout=stackLayout;horizontal=1;startSize=26;fillColor=#ffe6cc;horizontalStack=0;resizeParent=1;resizeParentMax=0;resizeLast=0;collapsible=1;marginBottom=0;whiteSpace=wrap;html=1;rounded=1;strokeColor=#d79b00;" parent="1" vertex="1">
          <mxGeometry x="1410" y="-240" width="580" height="78" as="geometry" />
        </mxCell>
        <mxCell id="wv7NlOpOTZngOKm9A4KX-40" value="#save(tweet) : Tweet" style="text;strokeColor=none;fillColor=none;align=left;verticalAlign=top;spacingLeft=4;spacingRight=4;overflow=hidden;rotatable=0;points=[[0,0.5],[1,0.5]];portConstraint=eastwest;whiteSpace=wrap;html=1;" parent="wv7NlOpOTZngOKm9A4KX-39" vertex="1">
          <mxGeometry y="26" width="580" height="26" as="geometry" />
        </mxCell>
        <mxCell id="-tmgflOPchkeGRTaXNn_-64" value="#findAllByUsuarioCreadorIdIn(usuariosSeguidosId :List&amp;lt;Long&amp;gt;, pageable :Pageable) :Page&amp;lt;Tweet&amp;gt;" style="text;strokeColor=none;fillColor=none;align=left;verticalAlign=top;spacingLeft=4;spacingRight=4;overflow=hidden;rotatable=0;points=[[0,0.5],[1,0.5]];portConstraint=eastwest;whiteSpace=wrap;html=1;" parent="wv7NlOpOTZngOKm9A4KX-39" vertex="1">
          <mxGeometry y="52" width="580" height="26" as="geometry" />
        </mxCell>
        <mxCell id="oM5YWkkTPaAaX_TVX0Da-2" value="UsuarioRestController" style="swimlane;fontStyle=0;childLayout=stackLayout;horizontal=1;startSize=26;fillColor=#fff2cc;horizontalStack=0;resizeParent=1;resizeParentMax=0;resizeLast=0;collapsible=1;marginBottom=0;whiteSpace=wrap;html=1;rounded=1;strokeColor=#d6b656;" parent="1" vertex="1">
          <mxGeometry x="70" y="189" width="440" height="104" as="geometry" />
        </mxCell>
        <mxCell id="oM5YWkkTPaAaX_TVX0Da-3" value="+&amp;nbsp;iniciarSesion&lt;span style=&quot;background-color: initial;&quot;&gt;(username:String): UsuarioDTO&lt;/span&gt;" style="text;strokeColor=none;fillColor=none;align=left;verticalAlign=top;spacingLeft=4;spacingRight=4;overflow=hidden;rotatable=0;points=[[0,0.5],[1,0.5]];portConstraint=eastwest;whiteSpace=wrap;html=1;" parent="oM5YWkkTPaAaX_TVX0Da-2" vertex="1">
          <mxGeometry y="26" width="440" height="26" as="geometry" />
        </mxCell>
        <mxCell id="oM5YWkkTPaAaX_TVX0Da-7" value="+&amp;nbsp;seguir&lt;span style=&quot;background-color: initial;&quot;&gt;(idUsuarioSeguidor: Long, idUsuarioSeguido :Long): UsuarioDTO&lt;/span&gt;" style="text;strokeColor=none;fillColor=none;align=left;verticalAlign=top;spacingLeft=4;spacingRight=4;overflow=hidden;rotatable=0;points=[[0,0.5],[1,0.5]];portConstraint=eastwest;whiteSpace=wrap;html=1;" parent="oM5YWkkTPaAaX_TVX0Da-2" vertex="1">
          <mxGeometry y="52" width="440" height="26" as="geometry" />
        </mxCell>
        <mxCell id="-tmgflOPchkeGRTaXNn_-85" value="+ buscarUsuarioConSeguidosPorId(id :Long) :UsuarioDTO" style="text;strokeColor=none;fillColor=none;align=left;verticalAlign=top;spacingLeft=4;spacingRight=4;overflow=hidden;rotatable=0;points=[[0,0.5],[1,0.5]];portConstraint=eastwest;whiteSpace=wrap;html=1;" parent="oM5YWkkTPaAaX_TVX0Da-2" vertex="1">
          <mxGeometry y="78" width="440" height="26" as="geometry" />
        </mxCell>
        <mxCell id="oM5YWkkTPaAaX_TVX0Da-8" value="" style="endArrow=open;endSize=12;dashed=1;html=1;rounded=0;" parent="1" source="oM5YWkkTPaAaX_TVX0Da-2" target="oM5YWkkTPaAaX_TVX0Da-11" edge="1">
          <mxGeometry x="0.004" width="160" relative="1" as="geometry">
            <mxPoint x="670" y="252" as="sourcePoint" />
            <mxPoint x="830" y="252" as="targetPoint" />
            <mxPoint as="offset" />
          </mxGeometry>
        </mxCell>
        <mxCell id="oM5YWkkTPaAaX_TVX0Da-9" value="" style="endArrow=open;endSize=12;dashed=1;html=1;rounded=0;" parent="1" source="oM5YWkkTPaAaX_TVX0Da-11" edge="1">
          <mxGeometry width="160" relative="1" as="geometry">
            <mxPoint x="550" y="194" as="sourcePoint" />
            <mxPoint x="1040" y="220" as="targetPoint" />
          </mxGeometry>
        </mxCell>
        <mxCell id="oM5YWkkTPaAaX_TVX0Da-11" value="&lt;i&gt;UsuarioServiceImpl&lt;/i&gt;" style="swimlane;fontStyle=0;childLayout=stackLayout;horizontal=1;startSize=26;fillColor=#dae8fc;horizontalStack=0;resizeParent=1;resizeParentMax=0;resizeLast=0;collapsible=1;marginBottom=0;whiteSpace=wrap;html=1;rounded=1;strokeColor=#6c8ebf;" parent="1" vertex="1">
          <mxGeometry x="637" y="202" width="260" height="52" as="geometry" />
        </mxCell>
        <mxCell id="oM5YWkkTPaAaX_TVX0Da-13" value="" style="endArrow=block;dashed=1;endFill=0;endSize=12;html=1;rounded=0;" parent="1" source="oM5YWkkTPaAaX_TVX0Da-11" target="wv7NlOpOTZngOKm9A4KX-31" edge="1">
          <mxGeometry width="160" relative="1" as="geometry">
            <mxPoint x="850" y="172" as="sourcePoint" />
            <mxPoint x="1010" y="172" as="targetPoint" />
          </mxGeometry>
        </mxCell>
        <mxCell id="oM5YWkkTPaAaX_TVX0Da-15" value="ExceptionControllerAdvice" style="swimlane;fontStyle=0;childLayout=stackLayout;horizontal=1;startSize=26;fillColor=#fff2cc;horizontalStack=0;resizeParent=1;resizeParentMax=0;resizeLast=0;collapsible=1;marginBottom=0;whiteSpace=wrap;html=1;rounded=1;strokeColor=#d6b656;" parent="1" vertex="1">
          <mxGeometry x="10" y="322" width="560" height="78" as="geometry" />
        </mxCell>
        <mxCell id="oM5YWkkTPaAaX_TVX0Da-16" value="+&amp;nbsp;handleIllegalAccessError&lt;span style=&quot;background-color: initial;&quot;&gt;(exception:IllegalAccessError):&amp;nbsp;&lt;/span&gt;ResponseEntity&amp;lt;String&amp;gt;" style="text;strokeColor=none;fillColor=none;align=left;verticalAlign=top;spacingLeft=4;spacingRight=4;overflow=hidden;rotatable=0;points=[[0,0.5],[1,0.5]];portConstraint=eastwest;whiteSpace=wrap;html=1;" parent="oM5YWkkTPaAaX_TVX0Da-15" vertex="1">
          <mxGeometry y="26" width="560" height="26" as="geometry" />
        </mxCell>
        <mxCell id="oM5YWkkTPaAaX_TVX0Da-18" value="+&amp;nbsp;handleIllegalArgumentException&lt;span style=&quot;background-color: initial;&quot;&gt;(exception:IllegalArgumentException):&amp;nbsp;&lt;/span&gt;&lt;span style=&quot;background-color: initial;&quot;&gt;ResponseEntity&amp;lt;String&amp;gt;&lt;/span&gt;" style="text;strokeColor=none;fillColor=none;align=left;verticalAlign=top;spacingLeft=4;spacingRight=4;overflow=hidden;rotatable=0;points=[[0,0.5],[1,0.5]];portConstraint=eastwest;whiteSpace=wrap;html=1;" parent="oM5YWkkTPaAaX_TVX0Da-15" vertex="1">
          <mxGeometry y="52" width="560" height="26" as="geometry" />
        </mxCell>
        <mxCell id="oM5YWkkTPaAaX_TVX0Da-19" value="" style="endArrow=open;endSize=12;dashed=1;html=1;rounded=0;" parent="1" source="oM5YWkkTPaAaX_TVX0Da-2" target="oM5YWkkTPaAaX_TVX0Da-15" edge="1">
          <mxGeometry x="0.004" width="160" relative="1" as="geometry">
            <mxPoint x="550" y="238" as="sourcePoint" />
            <mxPoint x="647" y="238" as="targetPoint" />
            <mxPoint as="offset" />
          </mxGeometry>
        </mxCell>
        <mxCell id="oM5YWkkTPaAaX_TVX0Da-20" value="&lt;i style=&quot;border-color: var(--border-color);&quot;&gt;&amp;lt;&amp;lt;Interface&amp;gt;&amp;gt;&lt;/i&gt;&lt;br style=&quot;border-color: var(--border-color);&quot;&gt;&lt;b style=&quot;border-color: var(--border-color);&quot;&gt;TimelineService&lt;/b&gt;" style="swimlane;fontStyle=0;childLayout=stackLayout;horizontal=1;startSize=26;fillColor=#dae8fc;horizontalStack=0;resizeParent=1;resizeParentMax=0;resizeLast=0;collapsible=1;marginBottom=0;whiteSpace=wrap;html=1;rounded=1;strokeColor=#6c8ebf;" parent="1" vertex="1">
          <mxGeometry x="423" y="523" width="548" height="52" as="geometry" />
        </mxCell>
        <mxCell id="oM5YWkkTPaAaX_TVX0Da-21" value="##obtenerTimeLinePorUsuarioId(id :Long, pagina :int, tamanio :long, sort :String) : TimeLineDTO" style="text;strokeColor=none;fillColor=none;align=left;verticalAlign=top;spacingLeft=4;spacingRight=4;overflow=hidden;rotatable=0;points=[[0,0.5],[1,0.5]];portConstraint=eastwest;whiteSpace=wrap;html=1;" parent="oM5YWkkTPaAaX_TVX0Da-20" vertex="1">
          <mxGeometry y="26" width="548" height="26" as="geometry" />
        </mxCell>
        <mxCell id="oM5YWkkTPaAaX_TVX0Da-25" value="TimelineRestController" style="swimlane;fontStyle=0;childLayout=stackLayout;horizontal=1;startSize=26;fillColor=#fff2cc;horizontalStack=0;resizeParent=1;resizeParentMax=0;resizeLast=0;collapsible=1;marginBottom=0;whiteSpace=wrap;html=1;rounded=1;strokeColor=#d6b656;" parent="1" vertex="1">
          <mxGeometry x="-60" y="660" width="570" height="52" as="geometry" />
        </mxCell>
        <mxCell id="oM5YWkkTPaAaX_TVX0Da-26" value="#obtenerTimeLinePorUsuarioId(id :Long, pagina :int, tamanio :long, sort :String) :&amp;nbsp;TimeLineDTO" style="text;strokeColor=none;fillColor=none;align=left;verticalAlign=top;spacingLeft=4;spacingRight=4;overflow=hidden;rotatable=0;points=[[0,0.5],[1,0.5]];portConstraint=eastwest;whiteSpace=wrap;html=1;" parent="oM5YWkkTPaAaX_TVX0Da-25" vertex="1">
          <mxGeometry y="26" width="570" height="26" as="geometry" />
        </mxCell>
        <mxCell id="oM5YWkkTPaAaX_TVX0Da-28" value="" style="endArrow=open;endSize=12;dashed=1;html=1;rounded=0;" parent="1" source="oM5YWkkTPaAaX_TVX0Da-25" target="oM5YWkkTPaAaX_TVX0Da-30" edge="1">
          <mxGeometry x="0.004" width="160" relative="1" as="geometry">
            <mxPoint x="600" y="710" as="sourcePoint" />
            <mxPoint x="760" y="710" as="targetPoint" />
            <mxPoint as="offset" />
          </mxGeometry>
        </mxCell>
        <mxCell id="oM5YWkkTPaAaX_TVX0Da-30" value="&lt;i&gt;TimelineServiceImpl&lt;/i&gt;" style="swimlane;fontStyle=0;childLayout=stackLayout;horizontal=1;startSize=26;fillColor=#dae8fc;horizontalStack=0;resizeParent=1;resizeParentMax=0;resizeLast=0;collapsible=1;marginBottom=0;whiteSpace=wrap;html=1;rounded=1;strokeColor=#6c8ebf;" parent="1" vertex="1">
          <mxGeometry x="567" y="660" width="260" height="52" as="geometry" />
        </mxCell>
        <mxCell id="oM5YWkkTPaAaX_TVX0Da-31" value="" style="endArrow=block;dashed=1;endFill=0;endSize=12;html=1;rounded=0;" parent="1" source="oM5YWkkTPaAaX_TVX0Da-30" target="oM5YWkkTPaAaX_TVX0Da-20" edge="1">
          <mxGeometry width="160" relative="1" as="geometry">
            <mxPoint x="780" y="630" as="sourcePoint" />
            <mxPoint x="940" y="630" as="targetPoint" />
          </mxGeometry>
        </mxCell>
        <mxCell id="oM5YWkkTPaAaX_TVX0Da-32" value="ExceptionControllerAdvice" style="swimlane;fontStyle=0;childLayout=stackLayout;horizontal=1;startSize=26;fillColor=#fff2cc;horizontalStack=0;resizeParent=1;resizeParentMax=0;resizeLast=0;collapsible=1;marginBottom=0;whiteSpace=wrap;html=1;rounded=1;strokeColor=#d6b656;" parent="1" vertex="1">
          <mxGeometry x="-55" y="780" width="560" height="78" as="geometry" />
        </mxCell>
        <mxCell id="oM5YWkkTPaAaX_TVX0Da-33" value="+&amp;nbsp;handleIllegalAccessError&lt;span style=&quot;background-color: initial;&quot;&gt;(exception:IllegalAccessError):&amp;nbsp;&lt;/span&gt;ResponseEntity&amp;lt;String&amp;gt;" style="text;strokeColor=none;fillColor=none;align=left;verticalAlign=top;spacingLeft=4;spacingRight=4;overflow=hidden;rotatable=0;points=[[0,0.5],[1,0.5]];portConstraint=eastwest;whiteSpace=wrap;html=1;" parent="oM5YWkkTPaAaX_TVX0Da-32" vertex="1">
          <mxGeometry y="26" width="560" height="26" as="geometry" />
        </mxCell>
        <mxCell id="oM5YWkkTPaAaX_TVX0Da-34" value="+&amp;nbsp;handleIllegalArgumentException&lt;span style=&quot;background-color: initial;&quot;&gt;(exception:IllegalArgumentException):&amp;nbsp;&lt;/span&gt;&lt;span style=&quot;background-color: initial;&quot;&gt;ResponseEntity&amp;lt;String&amp;gt;&lt;/span&gt;" style="text;strokeColor=none;fillColor=none;align=left;verticalAlign=top;spacingLeft=4;spacingRight=4;overflow=hidden;rotatable=0;points=[[0,0.5],[1,0.5]];portConstraint=eastwest;whiteSpace=wrap;html=1;" parent="oM5YWkkTPaAaX_TVX0Da-32" vertex="1">
          <mxGeometry y="52" width="560" height="26" as="geometry" />
        </mxCell>
        <mxCell id="oM5YWkkTPaAaX_TVX0Da-35" value="" style="endArrow=open;endSize=12;dashed=1;html=1;rounded=0;" parent="1" source="oM5YWkkTPaAaX_TVX0Da-25" target="oM5YWkkTPaAaX_TVX0Da-32" edge="1">
          <mxGeometry x="0.004" width="160" relative="1" as="geometry">
            <mxPoint x="480" y="696" as="sourcePoint" />
            <mxPoint x="577" y="696" as="targetPoint" />
            <mxPoint as="offset" />
          </mxGeometry>
        </mxCell>
        <mxCell id="oM5YWkkTPaAaX_TVX0Da-36" value="TweetRepository" style="swimlane;fontStyle=0;childLayout=stackLayout;horizontal=1;startSize=26;fillColor=#ffe6cc;horizontalStack=0;resizeParent=1;resizeParentMax=0;resizeLast=0;collapsible=1;marginBottom=0;whiteSpace=wrap;html=1;strokeColor=#d79b00;rounded=1;" parent="1" vertex="1">
          <mxGeometry x="1033" y="662" width="570" height="50" as="geometry" />
        </mxCell>
        <mxCell id="oM5YWkkTPaAaX_TVX0Da-38" value="" style="endArrow=open;endSize=12;dashed=1;html=1;rounded=0;" parent="1" source="oM5YWkkTPaAaX_TVX0Da-30" target="oM5YWkkTPaAaX_TVX0Da-36" edge="1">
          <mxGeometry width="160" relative="1" as="geometry">
            <mxPoint x="837" y="682" as="sourcePoint" />
            <mxPoint x="1050" y="660" as="targetPoint" />
          </mxGeometry>
        </mxCell>
        <mxCell id="oM5YWkkTPaAaX_TVX0Da-39" value="&lt;b&gt;TimeLineDTO&lt;br&gt;&lt;/b&gt;" style="swimlane;fontStyle=0;childLayout=stackLayout;horizontal=1;startSize=30;horizontalStack=0;resizeParent=1;resizeParentMax=0;resizeLast=0;collapsible=1;marginBottom=0;whiteSpace=wrap;html=1;rounded=1;fillColor=#dae8fc;strokeColor=#6c8ebf;strokeWidth=2;" parent="1" vertex="1">
          <mxGeometry x="50" y="525" width="180" height="120" as="geometry" />
        </mxCell>
        <mxCell id="oM5YWkkTPaAaX_TVX0Da-40" value="- id :Long" style="text;strokeColor=none;fillColor=none;align=left;verticalAlign=middle;spacingLeft=4;spacingRight=4;overflow=hidden;points=[[0,0.5],[1,0.5]];portConstraint=eastwest;rotatable=0;whiteSpace=wrap;html=1;rounded=1;" parent="oM5YWkkTPaAaX_TVX0Da-39" vertex="1">
          <mxGeometry y="30" width="180" height="30" as="geometry" />
        </mxCell>
        <mxCell id="oM5YWkkTPaAaX_TVX0Da-41" value="- username: String" style="text;strokeColor=none;fillColor=none;align=left;verticalAlign=middle;spacingLeft=4;spacingRight=4;overflow=hidden;points=[[0,0.5],[1,0.5]];portConstraint=eastwest;rotatable=0;whiteSpace=wrap;html=1;rounded=1;" parent="oM5YWkkTPaAaX_TVX0Da-39" vertex="1">
          <mxGeometry y="60" width="180" height="30" as="geometry" />
        </mxCell>
        <mxCell id="oM5YWkkTPaAaX_TVX0Da-42" value="- tweets:List&amp;lt;TweetDTO&amp;gt;" style="text;strokeColor=none;fillColor=none;align=left;verticalAlign=middle;spacingLeft=4;spacingRight=4;overflow=hidden;points=[[0,0.5],[1,0.5]];portConstraint=eastwest;rotatable=0;whiteSpace=wrap;html=1;rounded=1;" parent="oM5YWkkTPaAaX_TVX0Da-39" vertex="1">
          <mxGeometry y="90" width="180" height="30" as="geometry" />
        </mxCell>
        <mxCell id="-tmgflOPchkeGRTaXNn_-5" style="edgeStyle=orthogonalEdgeStyle;rounded=0;orthogonalLoop=1;jettySize=auto;html=1;fillColor=#e1d5e7;strokeColor=#9673a6;strokeWidth=3;" parent="1" source="-tmgflOPchkeGRTaXNn_-6" target="-tmgflOPchkeGRTaXNn_-3" edge="1">
          <mxGeometry relative="1" as="geometry">
            <Array as="points">
              <mxPoint x="740" y="1290" />
            </Array>
          </mxGeometry>
        </mxCell>
        <mxCell id="-tmgflOPchkeGRTaXNn_-8" style="edgeStyle=orthogonalEdgeStyle;rounded=0;orthogonalLoop=1;jettySize=auto;html=1;fillColor=#fff2cc;strokeColor=#d6b656;strokeWidth=3;" parent="1" source="-tmgflOPchkeGRTaXNn_-1" target="-tmgflOPchkeGRTaXNn_-9" edge="1">
          <mxGeometry relative="1" as="geometry">
            <mxPoint x="190" y="1110" as="targetPoint" />
            <Array as="points">
              <mxPoint x="350" y="1280" />
              <mxPoint x="350" y="1280" />
            </Array>
          </mxGeometry>
        </mxCell>
        <mxCell id="-tmgflOPchkeGRTaXNn_-11" style="edgeStyle=orthogonalEdgeStyle;rounded=0;orthogonalLoop=1;jettySize=auto;html=1;fillColor=#f8cecc;strokeColor=#b85450;strokeWidth=3;" parent="1" source="-tmgflOPchkeGRTaXNn_-1" target="-tmgflOPchkeGRTaXNn_-3" edge="1">
          <mxGeometry relative="1" as="geometry">
            <mxPoint x="410" y="1189.77" as="sourcePoint" />
            <mxPoint x="730" y="1189.77" as="targetPoint" />
            <Array as="points" />
          </mxGeometry>
        </mxCell>
        <mxCell id="-tmgflOPchkeGRTaXNn_-12" value="&lt;pre style=&quot;background-color: rgb(30, 30, 30); color: rgb(212, 212, 212); font-family: &amp;quot;Ubuntu Mono&amp;quot;, monospace; font-size: 11px;&quot;&gt;GET&lt;/pre&gt;&lt;pre style=&quot;background-color: rgb(30, 30, 30); font-family: &amp;quot;Ubuntu Mono&amp;quot;, monospace; font-size: 11px;&quot;&gt;&lt;font color=&quot;#d4d4d4&quot; style=&quot;font-size: 11px;&quot;&gt;/api/usuario/&lt;/font&gt;&lt;span style=&quot;color: rgb(255, 0, 102); font-weight: bold; font-size: 11px;&quot;&gt;{&lt;/span&gt;&lt;span style=&quot;color: rgb(220, 220, 170); font-size: 11px;&quot;&gt;id}&lt;/span&gt;&lt;span style=&quot;color: rgb(205, 144, 105); font-size: 11px;&quot;&gt;/seguidos&lt;/span&gt;&lt;/pre&gt;" style="edgeLabel;html=1;align=center;verticalAlign=middle;resizable=0;points=[];fontSize=11;" parent="-tmgflOPchkeGRTaXNn_-11" vertex="1" connectable="0">
          <mxGeometry x="-0.0637" y="-2" relative="1" as="geometry">
            <mxPoint x="10" y="-2" as="offset" />
          </mxGeometry>
        </mxCell>
        <mxCell id="-tmgflOPchkeGRTaXNn_-49" style="edgeStyle=orthogonalEdgeStyle;rounded=0;orthogonalLoop=1;jettySize=auto;html=1;fillColor=#f8cecc;strokeColor=#b85450;strokeWidth=3;" parent="1" source="-tmgflOPchkeGRTaXNn_-1" target="-tmgflOPchkeGRTaXNn_-9" edge="1">
          <mxGeometry relative="1" as="geometry">
            <Array as="points">
              <mxPoint x="370" y="1270" />
              <mxPoint x="370" y="1270" />
            </Array>
          </mxGeometry>
        </mxCell>
        <mxCell id="-tmgflOPchkeGRTaXNn_-1" value="Tweet&lt;br style=&quot;font-size: 10px;&quot;&gt;Puerto:8989" style="rhombus;whiteSpace=wrap;html=1;fontSize=10;" parent="1" vertex="1">
          <mxGeometry x="330" y="1150" width="80" height="80" as="geometry" />
        </mxCell>
        <mxCell id="-tmgflOPchkeGRTaXNn_-13" style="edgeStyle=orthogonalEdgeStyle;rounded=0;orthogonalLoop=1;jettySize=auto;html=1;fillColor=#f8cecc;strokeColor=#b85450;endArrow=none;endFill=0;strokeWidth=3;" parent="1" source="-tmgflOPchkeGRTaXNn_-17" target="-tmgflOPchkeGRTaXNn_-15" edge="1">
          <mxGeometry relative="1" as="geometry">
            <Array as="points">
              <mxPoint x="440" y="1055" />
              <mxPoint x="440" y="1055" />
            </Array>
          </mxGeometry>
        </mxCell>
        <mxCell id="-tmgflOPchkeGRTaXNn_-2" value="Timeline&#xa;Puerto: 8080" style="rhombus;whiteSpace=wrap;html=1;fontSize=10;" parent="1" vertex="1">
          <mxGeometry x="730" y="1015" width="80" height="80" as="geometry" />
        </mxCell>
        <mxCell id="-tmgflOPchkeGRTaXNn_-46" style="edgeStyle=orthogonalEdgeStyle;rounded=0;orthogonalLoop=1;jettySize=auto;html=1;fillColor=#dae8fc;strokeColor=#6c8ebf;strokeWidth=3;" parent="1" source="-tmgflOPchkeGRTaXNn_-3" target="-tmgflOPchkeGRTaXNn_-47" edge="1">
          <mxGeometry relative="1" as="geometry">
            <mxPoint x="770" y="1290" as="targetPoint" />
          </mxGeometry>
        </mxCell>
        <mxCell id="-tmgflOPchkeGRTaXNn_-3" value="&lt;font style=&quot;font-size: 10px;&quot;&gt;Usuario&lt;br style=&quot;font-size: 10px;&quot;&gt;Puerto:8181&lt;/font&gt;" style="rhombus;whiteSpace=wrap;html=1;fontSize=10;" parent="1" vertex="1">
          <mxGeometry x="730" y="1150" width="80" height="80" as="geometry" />
        </mxCell>
        <mxCell id="-tmgflOPchkeGRTaXNn_-9" value="uala_twitter_tweet&lt;br&gt;DB" style="shape=cylinder3;whiteSpace=wrap;html=1;boundedLbl=1;backgroundOutline=1;size=15;fillColor=#dae8fc;strokeColor=#6c8ebf;" parent="1" vertex="1">
          <mxGeometry x="310" y="1330" width="120" height="70" as="geometry" />
        </mxCell>
        <mxCell id="-tmgflOPchkeGRTaXNn_-10" value="" style="rounded=0;orthogonalLoop=1;jettySize=auto;html=1;endArrow=none;endFill=0;fillColor=#e1d5e7;strokeColor=#9673a6;strokeWidth=3;" parent="1" source="-tmgflOPchkeGRTaXNn_-1" target="-tmgflOPchkeGRTaXNn_-6" edge="1">
          <mxGeometry relative="1" as="geometry">
            <mxPoint x="260" y="1080" as="sourcePoint" />
            <mxPoint x="330" y="1130" as="targetPoint" />
            <Array as="points">
              <mxPoint x="420" y="1290" />
            </Array>
          </mxGeometry>
        </mxCell>
        <mxCell id="-tmgflOPchkeGRTaXNn_-6" value="&lt;font style=&quot;font-size: 13px;&quot;&gt;&lt;span style=&quot;background-color: rgb(30, 30, 30); color: rgb(212, 212, 212); font-family: &amp;quot;Ubuntu Mono&amp;quot;, monospace; font-size: 13px;&quot;&gt;&amp;nbsp;&lt;font style=&quot;font-size: 13px;&quot;&gt; &amp;nbsp; &amp;nbsp; GET&lt;span style=&quot;white-space: pre; font-size: 13px;&quot;&gt;&#x9;&lt;/span&gt;&lt;/font&gt;&lt;/span&gt;&lt;font style=&quot;font-size: 13px;&quot;&gt;&lt;br style=&quot;font-size: 13px;&quot;&gt;&lt;/font&gt;&lt;/font&gt;&lt;pre style=&quot;background-color: rgb(30, 30, 30); color: rgb(212, 212, 212); font-family: &amp;quot;Ubuntu Mono&amp;quot;, monospace; font-size: 13px;&quot;&gt;&lt;font style=&quot;font-size: 13px;&quot;&gt;/api/usuario/{&lt;span style=&quot;color: rgb(220, 220, 170); font-size: 13px;&quot;&gt;username}&lt;/span&gt;&lt;/font&gt;&lt;/pre&gt;" style="text;html=1;align=center;verticalAlign=middle;resizable=0;points=[];autosize=1;strokeColor=none;fillColor=none;fontSize=13;" parent="1" vertex="1">
          <mxGeometry x="500" y="1255" width="170" height="70" as="geometry" />
        </mxCell>
        <mxCell id="-tmgflOPchkeGRTaXNn_-16" style="edgeStyle=orthogonalEdgeStyle;rounded=0;orthogonalLoop=1;jettySize=auto;html=1;fillColor=#f8cecc;strokeColor=#b85450;endArrow=none;endFill=0;strokeWidth=3;" parent="1" source="-tmgflOPchkeGRTaXNn_-15" target="-tmgflOPchkeGRTaXNn_-1" edge="1">
          <mxGeometry relative="1" as="geometry" />
        </mxCell>
        <mxCell id="-tmgflOPchkeGRTaXNn_-15" value="&lt;font style=&quot;font-size: 9px;&quot;&gt;REDIS DB&lt;br&gt;Puerto: 6379&lt;/font&gt;" style="shape=cylinder3;whiteSpace=wrap;html=1;boundedLbl=1;backgroundOutline=1;size=15;fillColor=#f8cecc;strokeColor=#b85450;" parent="1" vertex="1">
          <mxGeometry x="340" y="1020" width="60" height="80" as="geometry" />
        </mxCell>
        <mxCell id="-tmgflOPchkeGRTaXNn_-25" value="" style="rounded=0;orthogonalLoop=1;jettySize=auto;html=1;endArrow=none;endFill=0;fillColor=#f8cecc;strokeColor=#b85450;strokeWidth=3;" parent="1" source="-tmgflOPchkeGRTaXNn_-2" target="-tmgflOPchkeGRTaXNn_-17" edge="1">
          <mxGeometry relative="1" as="geometry">
            <mxPoint x="510" y="1100" as="sourcePoint" />
            <mxPoint x="400" y="1060" as="targetPoint" />
          </mxGeometry>
        </mxCell>
        <mxCell id="-tmgflOPchkeGRTaXNn_-17" value="&lt;pre style=&quot;background-color: rgb(30, 30, 30); color: rgb(212, 212, 212); font-family: &amp;quot;Ubuntu Mono&amp;quot;, monospace; font-size: 12px;&quot;&gt;GET&lt;/pre&gt;&lt;pre style=&quot;background-color: rgb(30, 30, 30); color: rgb(212, 212, 212); font-family: &amp;quot;Ubuntu Mono&amp;quot;, monospace; font-size: 12px;&quot;&gt;/api/{id}&lt;span style=&quot;color: rgb(205, 144, 105); font-size: 12px;&quot;&gt;/tweets/{pageable}&lt;/span&gt;&lt;/pre&gt;" style="text;html=1;align=center;verticalAlign=middle;resizable=0;points=[];autosize=1;strokeColor=none;fillColor=none;fontSize=12;" parent="1" vertex="1">
          <mxGeometry x="490" y="1015" width="190" height="80" as="geometry" />
        </mxCell>
        <mxCell id="-tmgflOPchkeGRTaXNn_-28" style="edgeStyle=orthogonalEdgeStyle;rounded=0;orthogonalLoop=1;jettySize=auto;html=1;fillColor=#dae8fc;strokeColor=#6c8ebf;endArrow=none;endFill=0;strokeWidth=3;" parent="1" source="-tmgflOPchkeGRTaXNn_-31" target="-tmgflOPchkeGRTaXNn_-3" edge="1">
          <mxGeometry relative="1" as="geometry" />
        </mxCell>
        <mxCell id="-tmgflOPchkeGRTaXNn_-27" value="" style="shape=umlActor;verticalLabelPosition=bottom;verticalAlign=top;html=1;outlineConnect=0;" parent="1" vertex="1">
          <mxGeometry x="1210" y="1160" width="30" height="60" as="geometry" />
        </mxCell>
        <mxCell id="-tmgflOPchkeGRTaXNn_-32" value="" style="edgeStyle=orthogonalEdgeStyle;rounded=0;orthogonalLoop=1;jettySize=auto;html=1;fillColor=#dae8fc;strokeColor=#6c8ebf;endArrow=none;endFill=0;strokeWidth=3;" parent="1" source="-tmgflOPchkeGRTaXNn_-27" target="-tmgflOPchkeGRTaXNn_-31" edge="1">
          <mxGeometry relative="1" as="geometry">
            <mxPoint x="940" y="1190" as="sourcePoint" />
            <mxPoint x="810" y="1190" as="targetPoint" />
          </mxGeometry>
        </mxCell>
        <mxCell id="-tmgflOPchkeGRTaXNn_-31" value="PUT&lt;br&gt;/api/usuario/{idSeguidor}/seguido/{idSeguido}" style="text;html=1;align=center;verticalAlign=middle;resizable=0;points=[];autosize=1;strokeColor=default;fillColor=none;fontSize=10;" parent="1" vertex="1">
          <mxGeometry x="875" y="1170" width="220" height="40" as="geometry" />
        </mxCell>
        <mxCell id="-tmgflOPchkeGRTaXNn_-36" style="edgeStyle=orthogonalEdgeStyle;rounded=0;orthogonalLoop=1;jettySize=auto;html=1;fillColor=#f8cecc;strokeColor=#b85450;endArrow=none;endFill=0;strokeWidth=3;" parent="1" source="-tmgflOPchkeGRTaXNn_-33" target="-tmgflOPchkeGRTaXNn_-34" edge="1">
          <mxGeometry relative="1" as="geometry" />
        </mxCell>
        <mxCell id="-tmgflOPchkeGRTaXNn_-33" value="" style="shape=umlActor;verticalLabelPosition=bottom;verticalAlign=top;html=1;outlineConnect=0;" parent="1" vertex="1">
          <mxGeometry x="1211" y="1025" width="30" height="60" as="geometry" />
        </mxCell>
        <mxCell id="-tmgflOPchkeGRTaXNn_-35" style="edgeStyle=orthogonalEdgeStyle;rounded=0;orthogonalLoop=1;jettySize=auto;html=1;fillColor=#f8cecc;strokeColor=#b85450;endArrow=none;endFill=0;strokeWidth=3;" parent="1" source="-tmgflOPchkeGRTaXNn_-34" target="-tmgflOPchkeGRTaXNn_-2" edge="1">
          <mxGeometry relative="1" as="geometry" />
        </mxCell>
        <mxCell id="-tmgflOPchkeGRTaXNn_-34" value="GET&#xa;/api/timeline/{id}/?page={pagina}&amp;size={tamanio}&amp;sort={sort}" style="text;whiteSpace=wrap;spacing=1;align=center;verticalAlign=middle;fontSize=10;strokeColor=default;" parent="1" vertex="1">
          <mxGeometry x="870" y="1035" width="290" height="40" as="geometry" />
        </mxCell>
        <mxCell id="-tmgflOPchkeGRTaXNn_-39" style="edgeStyle=orthogonalEdgeStyle;rounded=0;orthogonalLoop=1;jettySize=auto;html=1;fillColor=#fff2cc;strokeColor=#d6b656;strokeWidth=3;endArrow=none;endFill=0;" parent="1" source="-tmgflOPchkeGRTaXNn_-40" target="-tmgflOPchkeGRTaXNn_-1" edge="1">
          <mxGeometry relative="1" as="geometry" />
        </mxCell>
        <mxCell id="-tmgflOPchkeGRTaXNn_-42" value="" style="edgeStyle=orthogonalEdgeStyle;rounded=0;orthogonalLoop=1;jettySize=auto;html=1;" parent="1" source="-tmgflOPchkeGRTaXNn_-38" target="-tmgflOPchkeGRTaXNn_-40" edge="1">
          <mxGeometry relative="1" as="geometry" />
        </mxCell>
        <mxCell id="-tmgflOPchkeGRTaXNn_-38" value="" style="shape=umlActor;verticalLabelPosition=bottom;verticalAlign=top;html=1;outlineConnect=0;" parent="1" vertex="1">
          <mxGeometry x="175" y="1060" width="30" height="60" as="geometry" />
        </mxCell>
        <mxCell id="-tmgflOPchkeGRTaXNn_-41" value="" style="edgeStyle=orthogonalEdgeStyle;rounded=0;orthogonalLoop=1;jettySize=auto;html=1;" parent="1" source="-tmgflOPchkeGRTaXNn_-38" target="-tmgflOPchkeGRTaXNn_-40" edge="1">
          <mxGeometry relative="1" as="geometry">
            <mxPoint x="60" y="1190" as="sourcePoint" />
            <mxPoint x="330" y="1190" as="targetPoint" />
          </mxGeometry>
        </mxCell>
        <mxCell id="-tmgflOPchkeGRTaXNn_-40" value="POST&lt;br&gt;/api/{username}/tweet" style="text;html=1;align=center;verticalAlign=middle;resizable=0;points=[];autosize=1;strokeColor=default;fillColor=none;fontSize=10;" parent="1" vertex="1">
          <mxGeometry x="130" y="1170" width="120" height="40" as="geometry" />
        </mxCell>
        <mxCell id="-tmgflOPchkeGRTaXNn_-47" value="uala_twitter_usuarios&lt;br style=&quot;font-size: 12px;&quot;&gt;DB" style="shape=cylinder3;whiteSpace=wrap;html=1;boundedLbl=1;backgroundOutline=1;size=15;fillColor=#fff2cc;strokeColor=#d6b656;fontSize=12;" parent="1" vertex="1">
          <mxGeometry x="705" y="1330" width="130" height="70" as="geometry" />
        </mxCell>
        <mxCell id="-tmgflOPchkeGRTaXNn_-50" value="&lt;i style=&quot;border-color: var(--border-color);&quot;&gt;&amp;lt;&amp;lt;Interface&amp;gt;&amp;gt;&lt;/i&gt;&lt;br style=&quot;border-color: var(--border-color);&quot;&gt;&lt;b style=&quot;border-color: var(--border-color);&quot;&gt;TimeLineRepository&lt;/b&gt;" style="swimlane;fontStyle=0;childLayout=stackLayout;horizontal=1;startSize=26;fillColor=#ffe6cc;horizontalStack=0;resizeParent=1;resizeParentMax=0;resizeLast=0;collapsible=1;marginBottom=0;whiteSpace=wrap;html=1;rounded=1;strokeColor=#d79b00;" parent="1" vertex="1">
          <mxGeometry x="1029.5" y="510" width="577" height="78" as="geometry" />
        </mxCell>
        <mxCell id="-tmgflOPchkeGRTaXNn_-51" value="#obtenerTimeLinePorUsuarioId(id :Long, pagina :int, tamanio :long, sort :String) : List&amp;lt;TweetDTO&amp;gt;" style="text;strokeColor=none;fillColor=none;align=left;verticalAlign=top;spacingLeft=4;spacingRight=4;overflow=hidden;rotatable=0;points=[[0,0.5],[1,0.5]];portConstraint=eastwest;whiteSpace=wrap;html=1;" parent="-tmgflOPchkeGRTaXNn_-50" vertex="1">
          <mxGeometry y="26" width="577" height="26" as="geometry" />
        </mxCell>
        <mxCell id="-tmgflOPchkeGRTaXNn_-53" value="#obtenerUsuario(id :Long) : UsuarioDTO" style="text;strokeColor=none;fillColor=none;align=left;verticalAlign=top;spacingLeft=4;spacingRight=4;overflow=hidden;rotatable=0;points=[[0,0.5],[1,0.5]];portConstraint=eastwest;whiteSpace=wrap;html=1;" parent="-tmgflOPchkeGRTaXNn_-50" vertex="1">
          <mxGeometry y="52" width="577" height="26" as="geometry" />
        </mxCell>
        <mxCell id="-tmgflOPchkeGRTaXNn_-52" value="" style="endArrow=block;dashed=1;endFill=0;endSize=12;html=1;rounded=0;" parent="1" source="oM5YWkkTPaAaX_TVX0Da-36" target="-tmgflOPchkeGRTaXNn_-50" edge="1">
          <mxGeometry width="160" relative="1" as="geometry">
            <mxPoint x="707" y="670" as="sourcePoint" />
            <mxPoint x="707" y="632" as="targetPoint" />
          </mxGeometry>
        </mxCell>
        <mxCell id="-tmgflOPchkeGRTaXNn_-59" value="TweetService" style="swimlane;fontStyle=0;childLayout=stackLayout;horizontal=1;startSize=26;fillColor=#f8cecc;horizontalStack=0;resizeParent=1;resizeParentMax=0;resizeLast=0;collapsible=1;marginBottom=0;whiteSpace=wrap;html=1;rounded=1;strokeColor=#b85450;" parent="1" vertex="1">
          <mxGeometry x="240" y="-223" width="470" height="78" as="geometry" />
        </mxCell>
        <mxCell id="-tmgflOPchkeGRTaXNn_-60" value="+&amp;nbsp;crear(username:String, tweet:String) :TweetDTO" style="text;strokeColor=none;fillColor=none;align=left;verticalAlign=top;spacingLeft=4;spacingRight=4;overflow=hidden;rotatable=0;points=[[0,0.5],[1,0.5]];portConstraint=eastwest;whiteSpace=wrap;html=1;" parent="-tmgflOPchkeGRTaXNn_-59" vertex="1">
          <mxGeometry y="26" width="470" height="26" as="geometry" />
        </mxCell>
        <mxCell id="-tmgflOPchkeGRTaXNn_-61" value="+ obtenerTweetsPorUsuariosId(usuariosId :long, pageable :Pageable) :ListTweetDTO" style="text;strokeColor=none;fillColor=none;align=left;verticalAlign=top;spacingLeft=4;spacingRight=4;overflow=hidden;rotatable=0;points=[[0,0.5],[1,0.5]];portConstraint=eastwest;whiteSpace=wrap;html=1;" parent="-tmgflOPchkeGRTaXNn_-59" vertex="1">
          <mxGeometry y="52" width="470" height="26" as="geometry" />
        </mxCell>
        <mxCell id="-tmgflOPchkeGRTaXNn_-62" value="" style="endArrow=open;endSize=12;dashed=1;html=1;rounded=0;" parent="1" source="-tmgflOPchkeGRTaXNn_-59" target="-tmgflOPchkeGRTaXNn_-65" edge="1">
          <mxGeometry x="0.004" width="160" relative="1" as="geometry">
            <mxPoint x="450" y="296" as="sourcePoint" />
            <mxPoint x="577" y="296" as="targetPoint" />
            <mxPoint as="offset" />
          </mxGeometry>
        </mxCell>
        <mxCell id="-tmgflOPchkeGRTaXNn_-63" value="" style="endArrow=open;endSize=12;dashed=1;html=1;rounded=0;" parent="1" source="-tmgflOPchkeGRTaXNn_-65" target="-tmgflOPchkeGRTaXNn_-76" edge="1">
          <mxGeometry x="0.004" width="160" relative="1" as="geometry">
            <mxPoint x="460" y="306" as="sourcePoint" />
            <mxPoint x="587" y="306" as="targetPoint" />
            <mxPoint as="offset" />
            <Array as="points">
              <mxPoint x="1250" y="-94" />
            </Array>
          </mxGeometry>
        </mxCell>
        <mxCell id="-tmgflOPchkeGRTaXNn_-65" value="TweetService" style="swimlane;fontStyle=0;childLayout=stackLayout;horizontal=1;startSize=26;fillColor=#dae8fc;horizontalStack=0;resizeParent=1;resizeParentMax=0;resizeLast=0;collapsible=1;marginBottom=0;whiteSpace=wrap;html=1;rounded=1;strokeColor=#6c8ebf;" parent="1" vertex="1">
          <mxGeometry x="820" y="-210" width="470" height="52" as="geometry" />
        </mxCell>
        <mxCell id="-tmgflOPchkeGRTaXNn_-68" value="" style="endArrow=block;dashed=1;endFill=0;endSize=12;html=1;rounded=0;" parent="1" source="-tmgflOPchkeGRTaXNn_-65" target="wv7NlOpOTZngOKm9A4KX-27" edge="1">
          <mxGeometry width="160" relative="1" as="geometry">
            <mxPoint x="707" y="270" as="sourcePoint" />
            <mxPoint x="707" y="228" as="targetPoint" />
          </mxGeometry>
        </mxCell>
        <mxCell id="-tmgflOPchkeGRTaXNn_-69" value="&lt;i style=&quot;border-color: var(--border-color);&quot;&gt;&amp;lt;&amp;lt;Interface&amp;gt;&amp;gt;&lt;/i&gt;&lt;br style=&quot;border-color: var(--border-color);&quot;&gt;UsuarioRepository" style="swimlane;fontStyle=0;childLayout=stackLayout;horizontal=1;startSize=26;fillColor=#ffe6cc;horizontalStack=0;resizeParent=1;resizeParentMax=0;resizeLast=0;collapsible=1;marginBottom=0;whiteSpace=wrap;html=1;rounded=1;strokeColor=#d79b00;" parent="1" vertex="1">
          <mxGeometry x="1430" y="-520" width="580" height="78" as="geometry" />
        </mxCell>
        <mxCell id="-tmgflOPchkeGRTaXNn_-70" value="#iniciarSesion(username&amp;nbsp;:String) :UsuarioDTO&amp;nbsp;" style="text;strokeColor=none;fillColor=none;align=left;verticalAlign=top;spacingLeft=4;spacingRight=4;overflow=hidden;rotatable=0;points=[[0,0.5],[1,0.5]];portConstraint=eastwest;whiteSpace=wrap;html=1;" parent="-tmgflOPchkeGRTaXNn_-69" vertex="1">
          <mxGeometry y="26" width="580" height="26" as="geometry" />
        </mxCell>
        <mxCell id="-tmgflOPchkeGRTaXNn_-71" value="#obtenerUsuario(id :Long) :UsuarioDTO" style="text;strokeColor=none;fillColor=none;align=left;verticalAlign=top;spacingLeft=4;spacingRight=4;overflow=hidden;rotatable=0;points=[[0,0.5],[1,0.5]];portConstraint=eastwest;whiteSpace=wrap;html=1;" parent="-tmgflOPchkeGRTaXNn_-69" vertex="1">
          <mxGeometry y="52" width="580" height="26" as="geometry" />
        </mxCell>
        <mxCell id="-tmgflOPchkeGRTaXNn_-72" value="UsuarioRepository" style="swimlane;fontStyle=0;childLayout=stackLayout;horizontal=1;startSize=26;fillColor=#ffe6cc;horizontalStack=0;resizeParent=1;resizeParentMax=0;resizeLast=0;collapsible=1;marginBottom=0;whiteSpace=wrap;html=1;rounded=1;strokeColor=#d79b00;" parent="1" vertex="1">
          <mxGeometry x="1430" y="-382" width="580" height="52" as="geometry" />
        </mxCell>
        <mxCell id="-tmgflOPchkeGRTaXNn_-76" value="TweetRepository" style="swimlane;fontStyle=0;childLayout=stackLayout;horizontal=1;startSize=26;fillColor=#ffe6cc;horizontalStack=0;resizeParent=1;resizeParentMax=0;resizeLast=0;collapsible=1;marginBottom=0;whiteSpace=wrap;html=1;rounded=1;strokeColor=#d79b00;" parent="1" vertex="1">
          <mxGeometry x="1410" y="-100" width="580" height="52" as="geometry" />
        </mxCell>
        <mxCell id="-tmgflOPchkeGRTaXNn_-80" value="" style="endArrow=block;dashed=1;endFill=0;endSize=12;html=1;rounded=0;" parent="1" source="-tmgflOPchkeGRTaXNn_-72" target="-tmgflOPchkeGRTaXNn_-69" edge="1">
          <mxGeometry width="160" relative="1" as="geometry">
            <mxPoint x="1105" y="-270" as="sourcePoint" />
            <mxPoint x="1105" y="-372" as="targetPoint" />
          </mxGeometry>
        </mxCell>
        <mxCell id="-tmgflOPchkeGRTaXNn_-81" value="" style="endArrow=block;dashed=1;endFill=0;endSize=12;html=1;rounded=0;" parent="1" source="-tmgflOPchkeGRTaXNn_-76" target="wv7NlOpOTZngOKm9A4KX-39" edge="1">
          <mxGeometry width="160" relative="1" as="geometry">
            <mxPoint x="1115" y="-260" as="sourcePoint" />
            <mxPoint x="1115" y="-362" as="targetPoint" />
          </mxGeometry>
        </mxCell>
        <mxCell id="-tmgflOPchkeGRTaXNn_-82" value="" style="endArrow=open;endSize=12;dashed=1;html=1;rounded=0;" parent="1" source="-tmgflOPchkeGRTaXNn_-65" target="-tmgflOPchkeGRTaXNn_-72" edge="1">
          <mxGeometry x="0.004" width="160" relative="1" as="geometry">
            <mxPoint x="1121" y="-148" as="sourcePoint" />
            <mxPoint x="1400" y="-84" as="targetPoint" />
            <mxPoint as="offset" />
            <Array as="points">
              <mxPoint x="1300" y="-190" />
              <mxPoint x="1340" y="-280" />
            </Array>
          </mxGeometry>
        </mxCell>
      </root>
    </mxGraphModel>
  </diagram>
</mxfile>
